# xmcd CD database file
# Generated: Sun Jan 4 18:37:00 2004 by KSCD
# 
# Track frame offsets:
#       150
#       26834
#       42728
#       65746
#       84756
#       100504
#       119241
#       134981
#       152658
#       171256
#       190115
#       212410
#
# Disc length: 3054 seconds
#
# Revision: 4
# Processed by: cddbd v1.4PL0 Copyright (c) Steve Scherf et al.
# Submitted via: Kscd 1.3.3
#
DISCID=ae0bec0c
DTITLE=Jonny Lang - Jonny Lang
DYEAR=1900
DGENRE=
TTITLE0=a quitter
TTITLE1=
TTITLE2=
TTITLE3=
TTITLE4=
TTITLE5=
TTITLE6=
TTITLE7=
TTITLE8=
TTITLE9=
TTITLE10=
TTITLE11=
EXTD=
EXTT0=
EXTT1=
EXTT2=
EXTT3=
EXTT4=
EXTT5=
EXTT6=
EXTT7=
EXTT8=
EXTT9=
EXTT10=
EXTT11=
PLAYORDER=
